# xmcd
#
# Track frame offsets:
#  150
#  12333
#  25151
#  38329
#  50433
#  63922
#  77220
#  90923
#  102909
#  117260
#  129471
#  143964
#  158364
#  175267
#  189525
#  204058
#  217723
#  231323
#  246374
#  260487
#  274918
#  288989
#  299255
#  313772
#  328266
#
# Disc length: 4568 seconds
#
# Revision: 0
# Processed by: cddbd v1.5.2PL0 Copyright (c) Steve Scherf et al.
# Submitted via: AltoMP3_Maker 3.0
#
DISCID=5c11d619
DTITLE=Various Artist - Mississippi Blues
DYEAR=1900
DGENRE=
TTITLE0=Gettting Old And Grey - Howlin' Wolf
TTITLE1=Hand In Hand - Elmore James
TTITLE2=Ain't No Teilin' - Mississippi John Hurt
TTITLE3=Peach Orchard Blues - Big Joe Williams
TTITLE4=Black Spider Blues - Robert Lockwood
TTITLE5=Stack O'Lee - Mississippi John Hurt
TTITLE6=Last Time Blues - Charlie McCoy
TTITLE7=Ninety Nine Blues - Blind Joe Reynolds
TTITLE8=Rampaw Street Blues - Willie '61' Blackwell
TTITLE9=Devil ln The Lion's Den - Sam Collins
TTITLE10=Travelling Mama Blues - Joe Callicott
TTITLE11=Muddy Water Blues - Freddie Spruell
TTITLE12=Levee Camp Blues - Son Jouse
TTITLE13=Dough Roller Blues - Garfield Akers
TTITLE14=Two Time Blues - Arthur Petties
TTITLE15=Last Kind Word Blues - Geechie Wiley
TTITLE16=Frigidaire Blues - Sonny Boy Williamson
TTITLE17=Gone Dead Train - King Solomon Hill
TTITLE18=SpoonfuI Blues - Charley Patton
TTITLE19=Bed Spring Poker - Mississippi Sheiks
TTITLE20=Little Rock Blues - Pearl Dickson
TTITLE21=Diamond Joe - Big Charlie Buttler
TTITLE22=Times Has Done Got Hard - King Solomon Hill
TTITLE23=Motherless And Fatherless Blues - Charlie McCoy
TTITLE24=It's Hard Time - Joe Stone
EXTD=
EXTT0=
EXTT1=
EXTT2=
EXTT3=
EXTT4=
EXTT5=
EXTT6=
EXTT7=
EXTT8=
EXTT9=
EXTT10=
EXTT11=
EXTT12=
EXTT13=
EXTT14=
EXTT15=
EXTT16=
EXTT17=
EXTT18=
EXTT19=
EXTT20=
EXTT21=
EXTT22=
EXTT23=
EXTT24=
PLAYORDER=
